<svg xmlns="http://www.w3.org/2000/svg" viewBox="0 0 16 16">
  <!-- Murciélago pixel art simplificado para favicon -->
  <rect width="16" height="16" fill="transparent"/>
  
  <!-- Cabeza -->
  <rect x="6" y="3" width="1" height="1" fill="#54556b"/>
  <rect x="7" y="3" width="1" height="1" fill="#54556b"/>
  <rect x="8" y="3" width="1" height="1" fill="#54556b"/>
  <rect x="9" y="3" width="1" height="1" fill="#54556b"/>
  
  <!-- Cuerpo superior -->
  <rect x="6" y="4" width="1" height="1" fill="#54556b"/>
  <rect x="7" y="4" width="1" height="1" fill="#202020"/>
  <rect x="8" y="4" width="1" height="1" fill="#202020"/>
  <rect x="9" y="4" width="1" height="1" fill="#54556b"/>
  
  <rect x="6" y="5" width="1" height="1" fill="#54556b"/>
  <rect x="7" y="5" width="1" height="1" fill="#202020"/>
  <rect x="8" y="5" width="1" height="1" fill="#202020"/>
  <rect x="9" y="5" width="1" height="1" fill="#54556b"/>
  
  <!-- Alas plegadas -->
  <rect x="5" y="6" width="1" height="1" fill="#54556b"/>
  <rect x="6" y="6" width="1" height="1" fill="#202020"/>
  <rect x="7" y="6" width="1" height="1" fill="#202020"/>
  <rect x="8" y="6" width="1" height="1" fill="#202020"/>
  <rect x="9" y="6" width="1" height="1" fill="#202020"/>
  <rect x="10" y="6" width="1" height="1" fill="#54556b"/>
  
  <!-- Cuerpo medio -->
  <rect x="6" y="7" width="1" height="1" fill="#54556b"/>
  <rect x="7" y="7" width="1" height="1" fill="#202020"/>
  <rect x="8" y="7" width="1" height="1" fill="#202020"/>
  <rect x="9" y="7" width="1" height="1" fill="#54556b"/>
  
  <!-- Ojos (blancos) -->
  <rect x="6.5" y="5" width="0.5" height="0.5" fill="#fff"/>
  <rect x="8.5" y="5" width="0.5" height="0.5" fill="#fff"/>
  
  <!-- Orejas puntiagudas -->
  <rect x="6" y="2" width="1" height="1" fill="#54556b"/>
  <rect x="9" y="2" width="1" height="1" fill="#54556b"/>
</svg>
